<?xml version="1.0" encoding="UTF-8"?>
<!DOCTYPE svg PUBLIC "-//W3C//DTD SVG 1.1//EN" "http://www.w3.org/Graphics/SVG/1.1/DTD/svg11.dtd">
<!-- Creator: CorelDRAW 2019 (64 Bit) -->
<svg xmlns="http://www.w3.org/2000/svg" xml:space="preserve" width="21.1666mm" height="21.1666mm" version="1.1" style="shape-rendering:geometricPrecision; text-rendering:geometricPrecision; image-rendering:optimizeQuality; fill-rule:evenodd; clip-rule:evenodd"
viewBox="0 0 2116.66 2116.66"
 xmlns:xlink="http://www.w3.org/1999/xlink">
 <defs>
  <style type="text/css">
   <![CDATA[
    .fil0 {fill:#131313}
    .fil3 {fill:#2E93BE}
    .fil1 {fill:#2E93BE}
    .fil4 {fill:#5363A9}
    .fil5 {fill:#54B5CD}
    .fil2 {fill:#F4F4F4}
   ]]>
  </style>
   <clipPath id="id0">
    <rect x="11691.07" y="-293.49" width="6773.32" height="6773.32"/>
   </clipPath>
 </defs>
 <g id="Camada_x0020_1">
  <metadata id="CorelCorpID_0Corel-Layer"/>
  <g style="clip-path:url(#id0)">
   <image x="11691.07" y="-293.49" width="6773.32" height="6773.32" xlink:href="logo-j_Images\logo-j_ImgID1.png"/>
  </g>
  <path class="fil0" d="M374.88 1182.39c-21.86,-16.74 -37.02,-24.74 -43.52,-60.76 -5.99,-78.95 94.21,-117.22 157.15,-207.39 87.28,-125.05 77.01,-216.49 151.13,-212.49 55.98,44.12 38.92,95.36 27.68,171.13 -8.93,60.19 -22.7,120.58 -44.25,170.8 -47.12,109.8 -176.57,206.25 -248.19,138.71zm771.53 -802.05c-2.56,136.13 -15.55,273.61 -13.48,412.8 1.19,80.19 12.21,111.87 35.76,178.89 34.01,96.76 61.77,67.54 104.39,11.61 32.78,-43.02 62.29,-81.44 92.38,-122.67 30.41,-41.67 60.87,-80.87 89.78,-125.27 21.58,-33.13 59.69,-112.24 111.17,-102.31 37.3,7.19 111.4,77.08 119.28,96.15 16.2,11.32 25.93,33.19 12.18,52.39 -12.4,30.43 -83.05,63.36 -122.85,103.57l-117.79 107.19c-9.16,7.48 -16.22,12.38 -24.79,20.33l-47.27 42.77c-20.67,19.41 -49.46,48.26 -72.12,62.19l-10.59 11.66c-34.64,63.93 -14.76,78.95 20.13,128.68 72.84,103.82 172.11,214.93 274.95,290.16 112.94,82.61 139.95,77.45 249.06,125.84 148.75,65.95 -20.3,125.57 -85.97,164.9 -22.09,15.2 -71.84,24.88 -95.73,3.4 -30.89,-10.37 -140.21,-120.74 -171.7,-149.73 -58.75,-54.07 -101.14,-96.4 -155.63,-159.53 -88.08,-102.05 -117.59,-187.68 -181.49,-298.62 -10.2,-17.7 -40.85,-71.3 -54.94,-85.09 -8.27,-8.1 1.23,-1.4 -8.55,-6.33 -43.76,91.99 -70.21,189.39 -115.78,279.16 -38.56,76 -125.05,185.4 -174.42,221.37 -94.69,107.8 -343.66,216.61 -494.1,269.89 -21.04,7.46 -46.81,16.75 -69.37,9.05 -0.9,-0.31 -9.9,-5.23 -10.53,-5.67 -6.43,-4.55 -4.38,-3.83 -8.75,-8.35 -32.62,-56.19 9.72,-75.47 54.48,-93.81 34.81,-14.28 76.3,-41.92 108.96,-60.88 230.77,-133.98 382.67,-220.97 487.49,-532.94 90.64,-269.81 65.03,-500.65 67.57,-788.11 0.85,-96.84 -25.85,-272.45 98.33,-229.03 40.11,14.02 82.51,37.95 111.77,58.48 17.25,17.87 28.06,26.62 23.16,59.69 -2.72,18.39 -12.82,45.78 -24.99,58.17zm-192.21 -291.43c-25.31,13.85 -38.58,15.96 -59.46,36.21 -137.65,133.5 -20.88,423.3 -92.22,573.14 -12.78,-5.46 -0.03,1.1 -9.41,-5.71 -25.73,-18.68 -44.87,-48.33 -86.95,-73.11 -89.58,-52.76 -182.72,-3.98 -231.35,75.98 -51.38,84.51 -85.98,130.26 -142.67,207.43 -32.85,44.7 -59.45,69.32 -78.57,96.46 -40.01,56.77 -47.18,133.56 -12.06,199.82 12.6,23.79 25.85,32.37 35.8,51.02 13.05,4.89 10.39,4.7 23.39,14.56l23.55 20c43.12,7.89 61.24,27.28 123.22,25.57 163.74,-4.5 218.68,-129.76 266.3,-179.04 3.69,-6.74 2.82,-6.74 8.23,-13.62 12.15,-15.43 1.23,-3.41 11.79,-11.23 5.18,-17.53 18.68,-41.22 38.72,-44.25 0.61,1.12 1.18,1.74 1.29,3.62 1.67,30.26 -5.36,53.34 -14.23,89.57 -50.12,204.69 -190.88,360.58 -372.51,467.62 -90.27,53.2 -246.86,115.58 -279.1,196.46 -30.05,75.38 2.79,137.87 43.59,174.93 53.78,48.86 120.15,43.08 200.83,35.6 86.77,-35.56 159.18,-63.68 242.36,-104.37 39.06,-19.11 77.15,-40.22 112.31,-62.59 37.03,-23.57 70.95,-50.5 106.73,-71.63 26.76,-17.59 77.93,-65.58 99.33,-87.42 164.18,-167.44 166.55,-324 274.89,-166.01 27.35,39.89 53.27,73.46 82.32,107.72 8.52,10.05 12.91,17.75 22.15,27.92l165.62 164.39c30.89,27.58 62.57,49.52 102.72,79.09 35.91,16.99 54.43,29.86 98.43,46.1 80.7,11.79 119.82,-4.55 182.44,-35.7 100.2,-49.83 224.11,-129.28 161.95,-259.81 -65.93,-138.43 -318.28,-123.04 -516.3,-394.05 -38.95,-53.31 -52.28,-86.33 -7.47,-137.88 12.68,-14.58 0.36,-5.97 18.64,-14.64 14.15,-10.26 19.84,-21.05 34.33,-32.67l104.7 -90.39c31.54,-29.43 116.37,-94.04 138.07,-124.23l26.53 -42.03c25.83,-93.35 4.87,-137.32 -43.05,-200.02 -30.37,-39.73 -94.88,-90.86 -163.88,-105.84 -169.17,-36.76 -202.32,159.73 -312.56,217.63 -56.63,-53.27 0.29,-291.04 -4.47,-420.69 -4.66,-126.76 -104.13,-216.27 -221.14,-237.73 -42.98,-6.89 -62.85,-1.83 -102.83,3.82z"/>
  <path class="fil1" d="M466.26 639.99c13.95,-10.88 26.44,-25.47 40.38,-36.35l40.71 -26.96c7.46,-3.5 15.1,-6.56 22.88,-9.11 48.8,-16.03 102.78,-13.09 155.56,18 24.58,14.46 41.74,29.64 56.45,43.86 8.65,-49.75 6.22,-110.7 3.74,-172.93 -5.31,-132.64 -10.83,-270.43 81.06,-359.54 18.19,-17.64 31.31,-24.43 47.37,-32.14l2.98 -1.59c5.35,-2.55 11.05,-5.28 15.56,-7.64 4.51,-2.84 9.67,-4.81 15.28,-5.63l15.24 -2.24c33.77,-5.04 55.86,-8.34 98.8,-1.53l1.59 0.25c68.97,12.64 132.74,46.3 178.99,96.02 43.63,46.91 71.76,107.92 74.37,179.02 1.75,47.89 -4.21,107.49 -10.23,167.8 -7.48,74.91 -15.09,151.12 -9.21,194.19 18.92,-18.3 36.52,-41.71 54.16,-65.17 59.63,-79.32 119.9,-159.45 251.32,-130.91 36.22,7.85 71.04,24.09 101.32,43.65 36.09,23.33 66.49,51.93 85.53,76.83 26.82,35.08 46.26,65.56 55.97,102.55 9.73,37.1 8.63,77.6 -6.1,131.16 -0.99,3.85 -2.57,7.63 -4.81,11.17l-27.91 44.03c-17.24,23.98 -61.52,60.91 -99.27,92.4 -17.27,14.41 -33.05,27.57 -43.9,37.69 -35.8,30.41 -71.35,61.46 -106.85,92.24 -4.45,3.58 -8.39,7.84 -12.18,11.97 -6.67,7.26 -13.17,14.32 -23.7,21.95 -1.96,1.37 -4.07,2.63 -6.32,3.69l-2.52 1.18 -3.17 3.75c-14.26,16.25 -19.47,27.88 -18.27,37.75 1.56,12.9 12.02,29.44 27.73,50.95 105.5,144.38 229.06,203.89 327.99,251.52 87.11,41.94 157.36,75.78 192.17,148.85 39.21,82.33 19.61,148.72 -25.63,202.42 -39.77,47.18 -99.15,82 -152.3,108.56l-2.05 1.1c-33.63,16.73 -61.19,29.53 -93.07,37.02 -32.44,7.61 -66.96,9.04 -112.65,2.37 -2.64,-0.4 -5.26,-1.05 -7.86,-2.01 -31.48,-11.62 -50.64,-21.55 -71.28,-32.25 -9.16,-4.75 -18.67,-9.69 -29.89,-15 -2.42,-1.1 -4.75,-2.46 -6.97,-4.09l-21.93 -16.06c-30.43,-22.31 -56.38,-41.25 -82.17,-64.12l-3.08 -2.75 -167.02 -165.79c-6.03,-6.64 -10.49,-12.63 -14.98,-18.66 -2.34,-3.17 -4.77,-6.41 -8.09,-10.34 -14.91,-17.58 -29.05,-35.04 -43.02,-53.28 -13.96,-18.21 -27.7,-37.14 -41.77,-57.67 -26.69,-38.92 -37.49,-50.49 -41.81,-47.55 -11.94,8.18 -28.42,32.42 -49.91,63.99 -29.39,43.06 -66.91,98.17 -122.59,154.96 -13.2,13.46 -36.41,35.73 -58.35,55.05 -15.63,13.75 -31.6,26.83 -44.73,35.78 -1.34,1.05 -2.76,2.03 -4.26,2.91 -18.83,11.13 -37.68,24.37 -56.79,37.78 -14.33,10.06 -28.87,20.27 -46.14,31.35l-2.71 1.89c-16.99,10.8 -35.8,21.95 -56.09,33.24 -19.23,10.73 -39.39,21.22 -60.08,31.35 -72.3,35.36 -134.16,60.54 -203.14,88.61l-41.7 17.01c-3.53,1.32 -7.29,2.26 -11.25,2.62 -42.59,3.93 -81.44,7.43 -118.35,3.32 -41.27,-4.6 -78.64,-18.15 -112.54,-48.96 -27.53,-24.99 -52.2,-59.89 -62.75,-102.23 -8.67,-34.79 -7.69,-74.08 9.14,-116.32 30.11,-75.53 134.72,-130.27 225.66,-177.85 25.28,-13.24 49.45,-25.88 70.09,-38.04 90.24,-53.19 169.89,-118.9 232.15,-197.07 43.96,-55.18 79.25,-116.6 103.46,-184.17 -47.8,61.77 -116.45,138.02 -254.22,141.8 -47.17,1.3 -72.25,-7.5 -97.5,-16.36 -10.33,-3.62 -20.74,-7.28 -32.46,-9.56 -7.06,-1.02 -13.93,-3.95 -19.78,-8.91l-22.49 -19.1 -7.74 -6.14c-1.24,-1.01 -1.51,-1.23 -5.01,-2.53 -8.68,-3.24 -16.25,-9.53 -20.96,-18.34 -2.79,-5.24 -6.99,-10.32 -11.4,-15.68 -7.77,-9.43 -16.06,-19.47 -24.55,-35.5 -20.74,-39.14 -29.19,-81.41 -26.73,-122.37 2.55,-42.52 16.88,-83.65 41.41,-118.46 9.23,-13.09 19.83,-25.4 31.83,-39.22l1.85 -2.29c13.61,-15.65 29.21,-33.59 45.36,-55.56l13.18 -17.92c48.56,-66.01 81.26,-110.44 127.64,-186.73 7.6,-12.31 16.05,-24.05 25.31,-34.98zm-91.65 542.45c-21.85,-16.73 -37.01,-24.74 -43.51,-60.76 -5.99,-78.95 94.21,-117.21 157.15,-207.39 87.27,-125.05 77.01,-216.49 151.12,-212.49 56,44.12 38.94,95.36 27.7,171.13 -8.94,60.19 -22.71,120.59 -44.27,170.8 -47.11,109.8 -176.56,206.25 -248.19,138.71zm1323 -400.46c-12.4,30.42 -83.05,63.36 -122.85,103.57l-117.79 107.2c-9.17,7.46 -16.22,12.37 -24.79,20.33l-47.27 42.76c-20.67,19.41 -49.46,48.27 -72.11,62.19l-10.6 11.65c-34.64,63.94 -14.75,78.96 20.13,128.69 72.84,103.82 172.11,214.93 274.95,290.16 112.95,82.62 139.95,77.45 249.07,125.83 148.74,65.96 -20.31,125.59 -85.98,164.91 -22.09,15.21 -71.84,24.88 -95.73,3.4 -30.89,-10.38 -140.21,-120.74 -171.7,-149.72 -58.75,-54.09 -101.13,-96.41 -155.63,-159.54 -88.08,-102.05 -117.59,-187.69 -181.5,-298.63 -10.19,-17.69 -40.83,-71.29 -54.93,-85.08 -8.27,-8.1 1.23,-1.4 -8.55,-6.33 -43.75,92 -70.21,189.39 -115.78,279.16 -38.56,76 -125.05,185.4 -174.41,221.37 -94.7,107.79 -343.67,216.61 -494.11,269.89 -21.04,7.46 -46.82,16.76 -69.37,9.05 -0.9,-0.31 -9.89,-5.23 -10.53,-5.67 -6.44,-4.54 -4.37,-3.83 -8.75,-8.35 -32.63,-56.2 9.72,-75.47 54.48,-93.82 34.81,-14.27 76.3,-41.91 108.97,-60.87 230.76,-133.98 382.66,-220.96 487.48,-532.94 90.64,-269.8 65.02,-500.65 67.56,-788.11 0.86,-96.84 -25.84,-272.46 98.33,-229.03 40.12,14.02 82.52,37.95 111.77,58.48 17.26,17.88 28.07,26.63 23.18,59.69 -2.73,18.4 -12.83,45.78 -24.99,58.17 -2.57,136.12 -15.56,273.62 -13.48,412.8 1.18,80.19 12.19,111.87 35.75,178.89 34.01,96.76 61.76,67.54 104.38,11.6 32.79,-43.01 62.29,-81.43 92.4,-122.66 30.4,-41.66 60.86,-80.87 89.77,-125.27 21.59,-33.14 59.68,-112.23 111.17,-102.32 37.3,7.2 111.4,77.08 119.27,96.16 16.21,11.32 25.94,33.19 12.19,52.39zm-964.09 324.46c5.2,-17.53 18.69,-41.22 38.73,-44.25 0.61,1.13 1.18,1.74 1.28,3.62 1.68,30.27 -5.34,53.34 -14.22,89.56 -50.11,204.7 -190.88,360.59 -372.51,467.62 -90.27,53.2 -246.86,115.58 -279.1,196.47 -30.05,75.38 2.79,137.87 43.59,174.92 53.78,48.87 120.15,43.09 200.83,35.62 86.77,-35.57 159.18,-63.69 242.36,-104.38 39.05,-19.11 77.15,-40.22 112.32,-62.59 37.02,-23.57 70.94,-50.5 106.72,-71.63 26.76,-17.6 77.92,-65.59 99.32,-87.42 164.19,-167.45 166.57,-324 274.9,-166 27.35,39.88 53.28,73.46 82.32,107.71 8.52,10.06 12.91,17.75 22.15,27.92l165.62 164.39c30.89,27.58 62.57,49.52 102.72,79.09 35.9,16.99 54.43,29.86 98.42,46.1 80.71,11.78 119.83,-4.55 182.45,-35.7 100.2,-49.83 224.12,-129.28 161.95,-259.81 -65.94,-138.43 -318.27,-123.04 -516.31,-394.05 -38.95,-53.3 -52.26,-86.34 -7.45,-137.88 12.67,-14.57 0.35,-5.96 18.63,-14.63 14.15,-10.27 19.84,-21.06 34.33,-32.68l104.7 -90.39c31.54,-29.43 116.37,-94.04 138.07,-124.24l26.53 -42.02c25.83,-93.35 4.87,-137.32 -43.06,-200.03 -30.36,-39.73 -94.87,-90.85 -163.87,-105.83 -169.17,-36.75 -202.32,159.73 -312.56,217.63 -56.63,-53.27 0.29,-291.05 -4.48,-420.7 -4.64,-126.75 -104.12,-216.26 -221.13,-237.72 -42.98,-6.89 -62.86,-1.83 -102.83,3.82 -25.31,13.85 -38.58,15.96 -59.46,36.21 -137.64,133.5 -20.89,423.3 -92.23,573.13 -12.77,-5.45 -0.02,1.11 -9.4,-5.69 -25.74,-18.69 -44.87,-48.34 -86.95,-73.13 -89.57,-52.75 -182.72,-3.97 -231.34,75.99 -51.4,84.52 -85.99,130.26 -142.68,207.42 -32.85,44.71 -59.45,69.33 -78.58,96.46 -39.99,56.78 -47.17,133.57 -12.05,199.83 12.6,23.79 25.85,32.38 35.8,51.02 13.05,4.88 10.39,4.69 23.39,14.55l23.55 20.01c43.12,7.89 61.24,27.28 123.22,25.57 163.73,-4.5 218.68,-129.76 266.3,-179.04 3.69,-6.74 2.83,-6.75 8.23,-13.62 12.14,-15.43 1.23,-3.42 11.78,-11.23zm-341.35 39.89l6.18 4.66 3.24 2.77c3.97,3.74 8.13,6.49 12.37,8.31 14.07,6.04 32.07,3.73 51.15,-4.31 23.46,-9.89 47.59,-28.02 69.1,-50.83 21.74,-23.06 40.29,-50.44 52.37,-78.61 9.87,-22.99 18.06,-48.72 24.86,-75.8 6.9,-27.5 12.34,-56.41 16.63,-85.3l4.32 -26.93c6.78,-41.29 11.91,-72.66 -6.04,-96.15 -11.36,7.33 -20.16,27.55 -32.79,56.63 -16.04,36.81 -36.26,83.24 -73.1,136.03 -26.97,38.66 -58.25,67.07 -86.72,92.93 -35.01,31.83 -64.64,58.75 -63.41,87.68 3.19,14.2 10.03,20.12 19.58,27.34l2.26 1.58zm708.1 -601.25c2.76,-55.69 5.54,-111.15 6.55,-164.08 -0.16,-10.16 3.59,-20.38 11.28,-28.19 1.9,-1.94 4.42,-6.74 6.96,-12.65 3.54,-8.14 6.09,-16.91 7.09,-23.65 1.77,-11.97 -2.43,-16.31 -9.44,-23.5l-0.21 -0.22c-14.14,-9.74 -31,-20.05 -48.63,-29.27 -16.34,-8.55 -33.72,-16.41 -50.61,-22.32 -23.15,-8.1 -34.18,-1.04 -38.98,12.7 -10.92,31.21 -9.35,84.05 -7.96,130.64 0.51,17.06 0.99,33.41 0.86,48.84 -0.49,56.52 0.11,111.08 0.68,164.11 2.41,219.11 4.54,413.6 -70.25,636.19 -109.05,324.6 -265.13,415.23 -501.75,552.6l-3.3 1.91c-12.48,7.25 -19.31,11.41 -26.65,15.86 -28.08,17.05 -58.89,35.77 -87.11,47.33 -17.83,7.31 -35.04,14.63 -41.29,21.92 -0.98,1.16 -0.23,4.51 3.7,11.79l1.66 0.79c9.31,2.09 25.57,-3.42 39.49,-8.34 0.43,-0.16 2.15,-0.9 2.56,-0.9 85.14,-30.16 202.08,-78.24 303.28,-133.51 73.01,-39.88 137.46,-83.14 174.34,-125.13 1.91,-2.12 4.07,-4.1 6.47,-5.85 21.6,-15.74 52.91,-49.57 83.73,-88.7 31.11,-39.49 60.72,-83.28 78.66,-118.65 23.31,-45.96 41.79,-94.89 60.31,-143.98 15.4,-40.83 30.87,-81.82 49.44,-122.32 22.08,-33.75 19.37,-23.86 41.43,-36.41 37.57,15.68 53.41,43.91 74.17,73.84 8.33,13.65 15.86,26.65 20.8,35.24 0.37,0.6 2.33,3.57 2.33,4.04 20.27,35.21 36.13,65.76 51.37,95.13 35.14,67.72 67.12,129.35 125.81,197.33 26.57,30.8 50.27,56.59 74.53,81.32 23.9,24.36 48.83,48.11 78.01,74.98 6.06,5.57 16.49,15.61 28.99,27.66 41.99,40.44 109.89,105.8 127.56,113.35 5.33,1.63 10.41,4.42 14.84,8.4 2.24,2.02 8.17,2.64 15.12,2.39 12.76,-0.44 25.16,-4.23 31.92,-8.86l2.15 -1.39c12.15,-7.27 25.91,-14.39 40.58,-21.98 36.18,-18.68 79.15,-40.9 86.03,-56.44 0.12,-0.27 -9.2,-4.64 -36.32,-16.66 -31.87,-14.14 -55.09,-23.11 -75.65,-31.05 -57.16,-22.08 -96.04,-37.1 -180.82,-99.11 -50.69,-37.08 -100.39,-82.38 -146.59,-131.13 -51.09,-53.92 -98,-112.11 -137.29,-168.12l-9.75 -13.75c-37.99,-52.64 -55.5,-76.92 -13.55,-154.96 1.6,-3.25 3.67,-6.34 6.24,-9.16l9.26 -10.18c2.7,-3.29 5.99,-6.2 9.82,-8.55 15.82,-9.73 37.46,-30.33 55.23,-47.25 18.95,-17.97 39.46,-34.86 57.99,-52.93 5.77,-5.34 11.16,-9.67 16.84,-14.12l8.67 -6.91 117.37 -106.81c19.15,-18.99 43.01,-35.67 65.41,-51.31 23.34,-16.3 44.71,-31.24 47.42,-37.92l2.44 -4.76 -0.9 -0.77c-5.85,-4.17 -10.64,-9.99 -13.56,-17.12 -2.4,-5.81 -22.97,-25.83 -46.84,-45.07 -17.28,-13.94 -34.34,-25.58 -43.46,-27.34 -17.14,-3.29 -42.87,39.34 -59.73,67.3 -3.33,5.53 -6.49,10.74 -11.06,17.76 -22.18,34.06 -44.87,64.66 -67.73,95.5l-23.28 31.47c-29.24,40.07 -53.85,72.29 -80.48,107.22l-12.36 16.21c-26.92,35.34 -50.15,62.37 -81.63,66.56 -36.87,4.92 -66.48,-18.72 -91.2,-89.12 -12.14,-34.53 -21.07,-60.01 -27.5,-88.96 -6.42,-28.96 -9.79,-59.35 -10.42,-102.41 -1.25,-84.44 2.85,-166.78 6.91,-248.57z"/>
  <path class="fil2" d="M9881.19 393.31c80.66,-8.05 302.36,-125.52 379.91,-176.48 18.77,-12.33 32.92,-23.2 52.08,-38.04 260.88,-202.01 277.52,-465.3 322.15,-510.79 48.42,73.99 69.82,110.21 111.52,192.14 55.18,108.4 113.59,181.37 198.03,265.64l159.52 149.57c20.21,21.29 53.2,55.75 99.42,58.27 56.36,-33.75 201.46,-84.93 73.79,-141.54 -93.65,-41.53 -116.83,-37.09 -213.77,-108 -88.27,-64.57 -173.47,-159.94 -235.99,-249.05 -29.94,-42.68 -47.01,-55.57 -17.28,-110.45 1.11,-64.29 27.88,-78.02 62.37,-106.46 7.83,-6.46 11.91,-11.73 19.84,-18.68 8.72,-7.63 15.39,-11.45 23.69,-19.33 17.18,-16.33 30.88,-26.39 45.04,-40.78l177.98 -158.15c-6.76,-16.37 -70.36,-76.35 -102.37,-82.53 -44.19,-8.51 -76.89,59.38 -95.42,87.82 -24.81,38.11 -50.95,71.76 -77.05,107.52 -25.84,35.39 -51.16,68.36 -79.3,105.28 -36.58,48.01 -60.4,73.09 -89.59,-9.96 -20.22,-57.52 -29.67,-84.71 -30.69,-153.54 -1.78,-119.46 9.37,-237.47 11.57,-354.3l1.56 -101.16c-25.11,-17.62 -61.5,-38.16 -95.93,-50.2 -106.58,-37.27 -83.66,113.46 -84.4,196.58 -2.18,246.73 19.81,444.86 -57.99,676.43 -89.96,267.77 -220.34,342.43 -418.4,457.42 -28.04,16.28 -63.65,40 -93.53,52.25 -38.41,15.75 -74.76,32.29 -46.76,80.52z"/>
  <path class="fil3" d="M10383.19 -1126.07c-3.87,100.9 -3.43,219.06 -3.64,323.56 2.4,31.68 -4.31,73.71 -19.54,97.89 -12.51,-5.93 -19.1,-15.39 -35.02,-30.65 -11.44,-10.97 -21.7,-21.68 -36.32,-32.34 -25.69,-18.72 -59.84,-34.02 -100.02,-31.53 -100.34,6.24 -137.7,109.2 -203.53,199.11 -19.81,27.07 -37.25,51.21 -57.92,79.46 -9.69,13.26 -17.66,23.2 -28.02,36.34 -20.22,25.67 -43,44.7 -60.57,76.78 -7.32,13.36 -12.77,37.42 -21.96,47.39l6.79 79.15c17.55,15.96 7.74,26.39 44.97,62.37 10.52,10.16 13.69,15.78 26.26,24.87 12.35,8.93 21.31,13.2 36.02,21.69 -8.54,-16 -19.91,-23.37 -30.73,-43.79 -30.14,-56.87 -23.98,-122.78 10.35,-171.51 16.42,-23.29 39.25,-44.42 67.44,-82.79 48.66,-66.23 78.35,-105.49 122.46,-178.03 41.73,-68.63 121.68,-110.5 198.56,-65.22 36.12,21.27 52.54,46.72 74.63,62.76 8.05,5.84 -2.89,0.21 8.07,4.89 61.23,-128.6 -38.98,-377.34 79.16,-491.92 17.92,-17.38 29.31,-19.19 51.03,-31.08 -8.36,-9.62 -7.38,0.98 -1.47,-9.47 4.6,-8.11 24.38,-13.12 38.6,-12.53 16.51,0.68 39.59,6.06 51.13,18.72 100.43,18.42 185.81,95.25 189.8,204.04 4.09,111.28 -44.76,315.36 3.84,361.08 94.62,-49.69 123.07,-218.33 268.27,-186.79 59.22,12.86 114.59,56.74 140.65,90.84 41.14,53.82 59.13,91.56 36.96,171.68 17.7,-21.05 33,-32.8 47,-59.18 0.68,-1.28 5.18,-10.97 5.48,-11.4 5.92,-8.6 3.31,-5.05 10.8,-10.26l4.16 -64.76c-13.75,-13.6 -29.42,-79.75 -92.41,-132.42 -33.62,-28.12 -99.35,-66.15 -163.35,-60.2 -126.16,11.73 -153.47,171.02 -246.14,207.5 -10.79,-36.08 -23.42,-30.34 -18.08,-79.88 -3.34,-50.12 5.93,-126.77 9.67,-178.84 4.59,-64.08 7.07,-120.84 8.16,-184.64l-2.94 18.66c-15.73,-57.23 -35.82,-92.31 -67.56,-122.39 -29.28,-27.75 -71.01,-56.41 -126.47,-66.83 -184.01,-34.57 -204.6,116.2 -220.08,143.72 -0.44,0.78 -1.84,3.69 -2.18,3 -0.34,-0.69 -1.42,2.07 -2.31,2.95z"/>
  <path class="fil4" d="M9881.19 393.31c3.76,3.88 1.99,3.27 7.51,7.17 0.55,0.38 8.27,4.6 9.04,4.87 19.36,6.61 41.48,-1.37 59.54,-7.77 129.12,-45.73 342.81,-139.13 424.09,-231.65 -2.61,-7.03 7.22,-13.22 16.32,-22.77 8.03,-8.43 12.3,-14.87 20.15,-22.89 79.51,-81.23 124.26,-181.14 164.78,-285.75 8.52,-22.02 16.56,-42.48 25.2,-65l24.79 -57.57c0.29,-1.52 1.34,-1.74 2.12,-2.51 126.58,169.01 124.8,294.53 352.2,498.77 13.45,12.07 26.33,21.68 38.98,34.04 15.3,14.95 19.37,20.52 35.27,33.38 13.95,11.29 21.61,22.21 35.16,33.48 4.22,3.51 38.73,26.55 25.31,27.43 20.51,18.43 63.21,10.13 82.17,-2.92 -46.22,-2.52 -79.21,-36.98 -99.42,-58.27l-159.52 -149.57c-84.44,-84.27 -142.85,-157.24 -198.03,-265.64 -41.7,-81.93 -63.1,-118.15 -111.52,-192.14 -44.63,45.49 -61.27,308.78 -322.15,510.79 -19.16,14.84 -33.31,25.71 -52.08,38.04 -77.55,50.96 -299.25,168.43 -379.91,176.48z"/>
  <path class="fil3" d="M11116.79 439.98c11.57,9.91 33.45,15.05 48.84,18.53 20.74,4.69 43.5,5.66 65.74,2.58 62.19,-8.63 179.15,-74.82 223.22,-119.63 34.8,-35.39 17.07,-36.24 32.51,-31.75l8.77 -81.12c-8.4,-8.24 -7.84,-11.78 -12.72,-23.3 -55.17,-130.21 -249.43,-112.77 -424.31,-305.08 -17.51,-19.26 -111.55,-111.94 -88.08,-154.41l8.07 -28.57c-15.69,7.44 -5.11,0.05 -15.99,12.56 -38.46,44.24 -27.03,72.59 6.4,118.34 169.97,232.61 386.55,219.4 443.14,338.21 53.36,112.04 -53,180.23 -139,223 -53.74,26.73 -87.32,40.75 -156.59,30.64z"/>
  <path class="fil3" d="M10322.48 -295.37c-2.24,70.65 -65.62,179.06 -97.49,227.11 -98.66,148.76 -215.43,202.62 -358.63,285.33 -35.15,20.29 -66.7,36.45 -99.44,59.36 -50.3,35.19 -48.92,67.04 -63.77,93.9l4.08 52.74c15.14,19.6 30.25,77.65 112.98,98.24 44.91,11.17 110.59,4.89 156.14,-13.35l15.62 -8.33c0.82,-0.53 2.18,-1.44 3.15,-2.31 -69.24,6.41 -126.21,11.37 -172.37,-30.57 -35.02,-31.8 -63.2,-85.44 -37.41,-150.13 27.67,-69.43 162.07,-122.97 239.55,-168.63 155.89,-91.87 276.71,-225.67 319.72,-401.36 7.62,-31.09 13.65,-50.89 12.21,-76.87 -0.09,-1.61 -0.58,-2.14 -1.1,-3.11 -17.2,2.6 -28.78,22.94 -33.24,37.98z"/>
  <path class="fil2" d="M9977.08 -282.29c95,26.34 148.57,-37.12 183.05,-82.7 19.56,-25.86 34.25,-54.81 46.92,-90.82 10.37,-29.51 18.18,-91.16 28.4,-113.16l6.22 -73.7c-63.61,-3.43 -54.8,75.05 -129.71,182.38 -54.02,77.4 -140.02,110.24 -134.88,178z"/>
  <path class="fil4" d="M10305.3 -274.04c9.74,24.72 -79.15,168.08 -106.45,201.08 -233.05,281.71 -500.45,240.41 -495.7,443.29 14.85,-26.86 13.47,-58.71 63.77,-93.9 32.74,-22.91 64.29,-39.07 99.44,-59.36 143.2,-82.71 259.97,-136.57 358.63,-285.33 31.87,-48.05 95.25,-156.46 97.49,-227.11 -9.06,6.71 0.31,-3.6 -10.11,9.64 -4.64,5.9 -3.9,5.91 -7.07,11.69z"/>
  <path class="fil4" d="M9816.65 -360.06c9.19,-9.97 14.64,-34.03 21.96,-47.39 17.57,-32.08 40.35,-51.11 60.57,-76.78 10.36,-13.14 18.33,-23.08 28.02,-36.34 20.67,-28.25 38.11,-52.39 57.92,-79.46 65.83,-89.91 103.19,-192.87 203.53,-199.11 40.18,-2.49 74.33,12.81 100.02,31.53 14.62,10.66 24.88,21.37 36.32,32.34 15.92,15.26 22.51,24.72 35.02,30.65 15.23,-24.18 21.94,-66.21 19.54,-97.89 -6.33,16.65 -10.54,44.29 -19.54,58.02 -32.46,-19.82 -141.97,-175.1 -272.06,-44.6 -25.5,25.58 -34.96,49.42 -57.34,84.22 -35.91,55.85 -78.58,110.66 -116.69,162.37 -37.03,50.26 -96.56,88.91 -97.27,182.44z"/>
  <path class="fil4" d="M11495.87 228.59c0.44,-145.16 -159.7,-173.75 -267.86,-235.64 -38.04,-21.77 -119.63,-78.71 -145.16,-108.13 -53.81,-61.99 -52.18,-42.41 -112.09,-139.02 -23.47,42.47 70.57,135.15 88.08,154.41 174.88,192.31 369.14,174.87 424.31,305.08 4.88,11.52 4.32,15.06 12.72,23.3z"/>
  <path class="fil4" d="M10786.9 -741.7c-5.34,49.54 7.29,43.8 18.08,79.88 92.67,-36.48 119.98,-195.77 246.14,-207.5 64,-5.95 129.73,32.08 163.35,60.2 62.99,52.67 78.66,118.82 92.41,132.42 -0.33,-108.97 -125.99,-232.11 -238.57,-233.28 -139.76,-1.45 -165.64,167.86 -262.1,207.89l-19.31 -39.61z"/>
  <path class="fil3" d="M10235.45 -568.97c7.19,61.16 -35.48,178.5 -61.31,222.37 -68.75,116.79 -147.92,107.61 -159.71,116.46 61.48,57.97 172.58,-24.81 213.02,-119.05 18.5,-43.1 30.32,-94.94 37.99,-146.6 9.65,-65.03 24.29,-109.01 -23.77,-146.88l-6.22 73.7z"/>
  <path class="fil4" d="M10383.19 -1126.07c0.89,-0.88 1.97,-3.64 2.31,-2.95 0.34,0.69 1.74,-2.22 2.18,-3 15.48,-27.52 36.07,-178.29 220.08,-143.72 55.46,10.42 97.19,39.08 126.47,66.83 31.74,30.08 51.83,65.16 67.56,122.39l2.94 -18.66c-15.74,-112.02 -93.16,-193.09 -202.22,-212.32 -139.39,-24.58 -209.27,65.48 -219.32,191.43z"/>
  <path class="fil3" d="M10381.37 165.93c42.37,-30.87 116.6,-124.77 149.7,-190 39.11,-77.05 61.82,-160.64 99.37,-239.6 8.4,4.23 0.24,-1.52 7.34,5.43 12.1,11.84 38.4,57.84 47.15,73.03 54.85,95.22 80.18,168.72 155.78,256.31 46.77,54.18 83.15,90.51 133.57,136.93 27.03,24.88 120.86,119.6 147.37,128.51 13.42,-0.88 -21.09,-23.92 -25.31,-27.43 -13.55,-11.27 -21.21,-22.19 -35.16,-33.48 -15.9,-12.86 -19.97,-18.43 -35.27,-33.38 -12.65,-12.36 -25.53,-21.97 -38.98,-34.04 -227.4,-204.24 -225.62,-329.76 -352.2,-498.77 -0.78,0.77 -1.83,0.99 -2.12,2.51l-24.79 57.57c-8.64,22.52 -16.68,42.98 -25.2,65 -40.52,104.61 -85.27,204.52 -164.78,285.75 -7.85,8.02 -12.12,14.46 -20.15,22.89 -9.1,9.55 -18.93,15.74 -16.32,22.77z"/>
  <path class="fil4" d="M10810.57 -275.42l9.1 -10c8.7,-26.44 19.5,-28.27 37.74,-43.33l288.14 -252.66c7.21,3.75 10.5,-10.66 4.4,7.56 11.8,-16.48 3.45,-35.25 -10.46,-44.97l-177.98 158.15c-14.16,14.39 -27.86,24.45 -45.04,40.78 -8.3,7.88 -14.97,11.7 -23.69,19.33 -7.93,6.95 -12.01,12.22 -19.84,18.68 -34.49,28.44 -61.26,42.17 -62.37,106.46z"/>
  <path class="fil5" d="M9995.12 497.32c-0.97,0.87 -2.33,1.78 -3.15,2.31l-15.62 8.33c-45.55,18.24 -111.23,24.52 -156.14,13.35 -82.73,-20.59 -97.84,-78.64 -112.98,-98.24 9.17,66.69 73.8,115.98 146.15,119.27 88.53,4.04 137.48,-22.95 208.54,-52.48 47.04,-19.55 295,-141.65 329.22,-197.33 -30.71,18.14 -59.82,41.25 -91.6,61.48 -30.18,19.2 -62.88,37.32 -96.4,53.72 -71.39,34.93 -133.54,59.06 -208.02,89.59z"/>
  <path class="fil4" d="M9977.08 -282.29c5.58,30.92 18.59,37.79 37.35,52.15 11.79,-8.85 90.96,0.33 159.71,-116.46 25.83,-43.87 68.5,-161.21 61.31,-222.37 -10.22,22 -18.03,83.65 -28.4,113.16 -12.67,36.01 -27.36,64.96 -46.92,90.82 -34.48,45.58 -88.05,109.04 -183.05,82.7z"/>
  <path class="fil5" d="M11116.79 439.98c-37.76,-13.94 -53.66,-24.99 -84.48,-39.57 5.19,7.09 0.88,1.99 7.16,8.03 0.78,0.75 6.08,5.18 7.44,6.22 129.39,99.16 223.34,73.08 354.99,-14.28 39.41,-26.15 63.97,-43.46 85.2,-90.67 -15.44,-4.49 2.29,-3.64 -32.51,31.75 -44.07,44.81 -161.03,111 -223.22,119.63 -22.24,3.08 -45,2.11 -65.74,-2.58 -15.39,-3.48 -37.27,-8.62 -48.84,-18.53z"/>
  <path class="fil3" d="M10819.67 -285.42c19.44,-11.95 44.15,-36.72 61.89,-53.38l40.57 -36.7c7.36,-6.83 13.41,-11.04 21.28,-17.45l101.1 -92.01c34.16,-34.51 94.8,-62.78 105.44,-88.89 6.1,-18.22 2.81,-3.81 -4.4,-7.56l-288.14 252.66c-18.24,15.06 -29.04,16.89 -37.74,43.33z"/>
  <path class="fil5" d="M9970.98 -142.32l-20.21 -17.17c-11.16,-8.46 -8.88,-8.3 -20.08,-12.49 -14.71,-8.49 -23.67,-12.76 -36.02,-21.69 -12.57,-9.09 -15.74,-14.71 -26.26,-24.87 -37.23,-35.98 -27.42,-46.41 -44.97,-62.37 10.2,64.92 79.86,130.46 147.54,138.59z"/>
  <path class="fil3" d="M10676.64 -918.53c10.44,-10.64 19.11,-34.14 21.45,-49.93 4.2,-28.38 -5.08,-35.89 -19.89,-51.23l-1.56 101.16z"/>
  <path class="fil5" d="M11239.44 -531.1l-22.77 36.07c14.96,-6.73 15.7,-11.25 27.01,-22.57 8.04,-8.04 17.39,-16.12 25.28,-26.2 14.58,-18.63 27.26,-39.66 33.76,-68.14 -7.49,5.21 -4.88,1.66 -10.8,10.26 -0.3,0.43 -4.8,10.12 -5.48,11.4 -14,26.38 -29.3,38.13 -47,59.18z"/>
  <path class="fil5" d="M10511.66 -1168.67c34.31,-4.85 51.37,-9.19 88.26,-3.28 -11.54,-12.66 -34.62,-18.04 -51.13,-18.72 -14.22,-0.59 -34,4.42 -38.6,12.53 -5.91,10.45 -6.89,-0.15 1.47,9.47z"/>
 </g>
</svg>
